<svg width="18" height="25" viewBox="0 0 18 25" fill="none" xmlns="http://www.w3.org/2000/svg">
<g clip-path="url(#clip0_105_589)">
<path d="M0 2.34375C0 1.0498 1.00781 0 2.25 0V2.34375V21.5527L8.34844 17.0166C8.7375 16.7236 9.26719 16.7236 9.65625 17.0166L15.75 21.5527V2.34375H2.25V0H15.75C16.9922 0 18 1.0498 18 2.34375V23.8281C18 24.2676 17.7656 24.668 17.3906 24.8682C17.0156 25.0684 16.5656 25.0342 16.2234 24.7803L9 19.4092L1.77656 24.7803C1.43438 25.0342 0.984375 25.0684 0.609375 24.8682C0.234375 24.668 0 24.2676 0 23.8281V2.34375Z" fill="black"/>
</g>
<defs>
<clipPath id="clip0_105_589">
<rect width="18" height="25" fill="white"/>
</clipPath>
</defs>
</svg>
