<svg width="25" height="25" viewBox="0 0 25 25" fill="none" xmlns="http://www.w3.org/2000/svg">
<path d="M0 4.6875C0 2.96387 1.40137 1.5625 3.125 1.5625H9.5752C10.5078 1.5625 11.4014 1.93359 12.0605 2.59277L14.1553 4.6875H21.875C23.5986 4.6875 25 6.08887 25 7.8125V20.3125C25 22.0361 23.5986 23.4375 21.875 23.4375H3.125C1.40137 23.4375 0 22.0361 0 20.3125V4.6875ZM3.125 3.90625C2.69531 3.90625 2.34375 4.25781 2.34375 4.6875V20.3125C2.34375 20.7422 2.69531 21.0938 3.125 21.0938H21.875C22.3047 21.0938 22.6562 20.7422 22.6562 20.3125V7.8125C22.6562 7.38281 22.3047 7.03125 21.875 7.03125H13.9941C13.4766 7.03125 12.9785 6.82617 12.6123 6.45996L10.4053 4.24805C10.1855 4.02832 9.8877 3.90625 9.5752 3.90625H3.125Z" fill="black"/>
</svg>
