<svg width="30" height="30" viewBox="0 0 30 30" fill="none" xmlns="http://www.w3.org/2000/svg">
<path d="M27.1785 15.6859C29.827 12.3753 29.827 7.01398 27.1785 3.70343C24.8348 0.773741 21.141 0.392881 18.4457 2.80108L18.3707 2.86554C17.6957 3.46905 17.541 4.64093 18.0238 5.47882C18.5066 6.31671 19.4441 6.51593 20.1145 5.91241L20.1895 5.84796C21.6941 4.50616 23.752 4.7171 25.0551 6.35187C26.5316 8.19757 26.5316 11.1859 25.0551 13.0316L19.7957 19.6175C18.3191 21.4632 15.9285 21.4632 14.452 19.6175C13.1441 17.9827 12.9754 15.4105 14.0488 13.5355L14.1004 13.4417C14.5832 12.598 14.4238 11.4261 13.7535 10.8284C13.0832 10.2308 12.141 10.4241 11.6629 11.262L11.6113 11.3558C9.68008 14.7191 9.98477 19.3362 12.3285 22.2659C14.977 25.5765 19.266 25.5765 21.9145 22.2659L27.1785 15.6859ZM2.82227 14.3148C0.173828 17.6253 0.173828 22.9866 2.82227 26.2972C5.16602 29.2269 8.85977 29.6077 11.5551 27.1995L11.6301 27.1351C12.3051 26.5316 12.4598 25.3597 11.977 24.5218C11.4941 23.6839 10.5566 23.4847 9.88633 24.0882L9.81133 24.1526C8.30664 25.4944 6.24883 25.2835 4.9457 23.6487C3.46914 21.7972 3.46914 18.8089 4.9457 16.9632L10.2051 10.3831C11.6816 8.53741 14.0723 8.53741 15.5488 10.3831C16.8566 12.0179 17.0254 14.5901 15.952 16.471L15.9004 16.5648C15.4176 17.4085 15.577 18.5804 16.2473 19.178C16.9176 19.7757 17.8598 19.5823 18.3379 18.7444L18.3895 18.6507C20.3207 15.2816 20.016 10.6644 17.6723 7.73468C15.0238 4.42413 10.7348 4.42413 8.08633 7.73468L2.82227 14.3148Z" fill="black"/>
</svg>
